<?xml version="1.0" encoding="UTF-8"?>
<svg id="Camada_4" data-name="Camada 4" xmlns="http://www.w3.org/2000/svg" viewBox="0 0 65.81 16.53">
  <defs>
    <style>
      .cls-1 {
        stroke: #496ca8;
      }

      .cls-1, .cls-2, .cls-3 {
        fill: none;
        stroke-miterlimit: 10;
        stroke-width: .25px;
      }

      .cls-2 {
        stroke: #e3af64;
      }

      .cls-3 {
        stroke: #df8a5d;
      }

      .cls-4 {
        fill: #f9f8ed;
      }
    </style>
  </defs>
  <path class="cls-1" d="M45,6.08c-3.91.02-7.44.24-10.09.58-2.86-1.32-4.57-2.43-4.38-3.01.33-1.04,6.71.05,14.47,2.43Z"/>
  <path class="cls-1" d="M60.35,13.15c-.31.95-5.68.12-12.54-1.87-.63-.17-1.27-.36-1.93-.57.16.01.32.01.48.01,1.26.01,2.49,0,3.67-.03,2.33-.06,4.47-.19,6.31-.38,2.64,1.25,4.19,2.29,4.01,2.84Z"/>
  <path class="cls-2" d="M47.18,10.72c-.62.19-1.26.38-1.91.57-.47.13-.93.27-1.4.39-8.78,2.39-16.13,3.28-16.41,1.98-.17-.79,2.3-2.19,6.22-3.71,2.5.44,6.01.74,9.93.79.14,0,.28,0,.41,0,1.09,0,2.15,0,3.16-.03Z"/>
  <path class="cls-2" d="M64.03,4.74c.14.58-1.26,1.49-3.72,2.53-2.62-.61-7.09-1.05-12.27-1.17,8.79-1.94,15.69-2.56,15.99-1.36Z"/>
  <path class="cls-3" d="M62.81,8.52c-.01.75-2.54,1.4-6.47,1.79-1.84.19-3.98.32-6.31.38-1.18.03-2.41.04-3.67.03-.16,0-.32,0-.48-.01-4.55-.05-8.63-.36-11.53-.82-2.73-.43-4.4-1-4.4-1.61.01-.65,1.91-1.22,4.96-1.62,2.65-.34,6.18-.56,10.09-.58h1.4c.55,0,1.1.01,1.64.02,5.18.12,9.65.56,12.27,1.17,1.59.37,2.5.8,2.5,1.25Z"/>
  <g>
    <path class="cls-4" d="M11.57,11.91c-.82,0-1.53-.18-2.15-.55s-1.1-.88-1.45-1.55-.52-1.46-.52-2.38.18-1.75.54-2.42.85-1.19,1.46-1.54,1.31-.54,2.08-.54c.49,0,.95.07,1.38.21s.81.35,1.14.61.6.58.82.94.35.76.41,1.2h-1.82c-.06-.21-.14-.41-.25-.57s-.25-.31-.41-.43-.34-.21-.55-.28-.43-.09-.68-.09c-.46,0-.86.11-1.2.34s-.61.56-.81.99-.29.95-.29,1.57.09,1.14.28,1.57.46.76.81.99.76.34,1.23.34c.42,0,.78-.08,1.08-.23s.54-.37.7-.65.24-.61.24-.99l.39.05h-2.28v-1.36h3.64v1.1c0,.75-.16,1.41-.49,1.95s-.77.97-1.34,1.27-1.22.45-1.96.45Z"/>
    <path class="cls-4" d="M19.56,11.91c-.66,0-1.23-.14-1.71-.41s-.85-.66-1.11-1.16-.39-1.09-.39-1.76.13-1.25.39-1.75.62-.89,1.09-1.18,1.02-.42,1.65-.42c.43,0,.84.07,1.21.21s.7.35.98.62.5.62.65,1.03.23.89.23,1.43v.49h-5.49v-1.1h4.64l-.81.29c0-.34-.05-.63-.16-.87s-.26-.44-.47-.57-.46-.2-.76-.2-.56.07-.77.21-.37.32-.48.56-.17.51-.17.82v.77c0,.36.06.67.19.93s.3.45.53.58.5.2.8.2c.21,0,.4-.03.57-.09s.31-.15.43-.26.21-.26.27-.42l1.59.23c-.1.38-.28.7-.55.98s-.59.5-.99.65-.85.23-1.36.23Z"/>
    <path class="cls-4" d="M26.6,11.91c-.65,0-1.22-.14-1.7-.42s-.85-.67-1.11-1.17-.39-1.08-.39-1.75.13-1.26.39-1.76.63-.89,1.11-1.17,1.04-.42,1.7-.42,1.21.14,1.69.42.85.67,1.11,1.17.39,1.09.39,1.76-.13,1.25-.39,1.75-.63.89-1.11,1.17-1.04.42-1.69.42ZM26.6,10.53c.3,0,.56-.08.77-.25s.37-.4.48-.69.16-.63.16-1.02-.05-.73-.16-1.02-.27-.52-.48-.69-.47-.25-.77-.25-.56.08-.77.25-.37.4-.48.69-.16.63-.16,1.02.05.72.16,1.02.27.53.47.69.47.25.78.25Z"/>
    <path class="cls-4" d="M34.53,11.78l.1-.43c.4-.03.72-.08.94-.15s.34-.14.34-.23c0-.07,0-.13-.01-.18s-.02-.11-.03-.18l-.29-1.63h-2.86c-.09.14-.21.33-.36.57-.14.24-.26.44-.36.61-.15.27-.24.45-.26.54s-.04.16-.04.19c0,.12.09.21.28.29s.46.13.84.17l-.1.43h-3.49l.1-.43c.11,0,.26-.03.43-.06s.32-.08.43-.14c.16-.09.32-.2.46-.33s.28-.3.4-.5c.79-1.22,1.52-2.34,2.19-3.38s1.43-2.23,2.31-3.59h1.16c.3,1.75.55,3.2.75,4.34s.37,2.1.52,2.87c.02.12.06.22.11.32s.15.19.27.27c.09.06.21.11.34.14s.26.05.38.06l-.1.43h-4.45ZM35.46,8.44l-.51-3.03-1.9,3.03h2.41Z"/>
    <path class="cls-4" d="M43.71,2.81l-1.58,6.86c-.03.11-.06.26-.1.45s-.06.33-.06.42c0,.23.06.38.17.46.11.08.3.12.56.12.1,0,.23-.02.4-.06s.29-.08.36-.11l-.13.53c-.39.15-.7.27-.95.35s-.53.12-.84.12c-.47,0-.84-.11-1.11-.34s-.4-.52-.4-.87c0-.14.01-.29.04-.45s.05-.31.08-.45l1.27-5.5c.02-.07.03-.13.04-.19s.01-.11.01-.15c0-.14-.02-.25-.07-.33s-.12-.15-.21-.2-.2-.09-.32-.11-.26-.04-.42-.05l.11-.43,3.09-.15.07.09Z"/>
    <path class="cls-4" d="M46.79,11.98c-.47,0-.88-.06-1.23-.19s-.65-.3-.88-.53c-.23-.23-.4-.49-.51-.79s-.17-.63-.17-1c0-.46.09-.91.26-1.34s.43-.82.77-1.17c.32-.33.73-.6,1.22-.81s1.04-.31,1.63-.31c.7,0,1.23.11,1.6.33s.55.56.55,1-.16.79-.47,1.1-.75.53-1.29.68c-.43.13-.8.22-1.1.28s-.67.11-1.11.15c0,.17.03.37.07.58s.1.4.18.55c.09.18.23.32.4.42s.39.16.66.16c.46,0,.85-.09,1.17-.27s.63-.46.92-.85l.43.36c-.35.5-.8.9-1.35,1.2s-1.13.45-1.73.45ZM48.11,7.33c0-.33-.06-.59-.18-.76s-.29-.27-.5-.27c-.3,0-.58.25-.85.74s-.44,1.11-.51,1.86c.23-.03.46-.06.69-.11s.41-.09.54-.15c.29-.13.5-.29.63-.5s.19-.47.19-.81Z"/>
    <path class="cls-4" d="M56.76,7.05c0,.18-.03.35-.08.51s-.13.3-.23.42c-.11.13-.23.23-.36.3s-.3.1-.53.1c-.29,0-.52-.07-.69-.22s-.25-.31-.25-.49c0-.17.02-.31.07-.43s.13-.3.23-.55c-.26.11-.49.24-.68.4-.19.16-.37.34-.54.54l-.93,4.15h-1.93l.81-3.6c.02-.11.05-.25.09-.43s.06-.32.06-.44c0-.23-.04-.38-.13-.46s-.26-.12-.51-.12c-.12,0-.25.02-.38.06s-.24.08-.34.11l.13-.53c.32-.13.62-.24.91-.33.29-.09.56-.14.82-.14.46,0,.8.09,1.03.27.23.18.38.44.45.76h.04c.39-.41.72-.7.99-.86.27-.16.56-.24.87-.24.33,0,.59.1.79.31.19.21.29.51.29.91Z"/>
    <path class="cls-4" d="M59.07,11.93c-.47,0-.84-.11-1.12-.34s-.42-.52-.42-.87c0-.14,0-.28.03-.41s.05-.29.09-.5l.73-3.12h-1.07l.14-.6h1.09l.42-1.78h1.9l-.41,1.78h1.59l-.14.6h-1.58l-.71,3.12c-.03.11-.05.24-.08.4s-.04.26-.04.3c0,.22.06.38.18.46s.31.13.56.13c.12,0,.29-.02.5-.07s.36-.09.45-.12l-.13.53c-.34.15-.69.27-1.03.36s-.66.13-.95.13Z"/>
  </g>
</svg>