<?xml version="1.0" encoding="UTF-8"?>
<svg id="Camada_4" data-name="Camada 4" xmlns="http://www.w3.org/2000/svg" viewBox="0 0 13.65 13.65">
  <defs>
    <style>
      .cls-1 {
        fill: #e3af64;
      }

      .cls-2 {
        stroke: #496ca8;
      }

      .cls-2, .cls-3, .cls-4 {
        fill: none;
        stroke-miterlimit: 10;
        stroke-width: .25px;
      }

      .cls-3 {
        stroke: #e3af64;
      }

      .cls-4 {
        stroke: #df8a5d;
      }
    </style>
  </defs>
  <ellipse class="cls-2" cx="6.83" cy="6.89" rx="2.08" ry="6.36" transform="translate(-2.83 6.05) rotate(-40.27)"/>
  <ellipse class="cls-4" cx="6.83" cy="6.96" rx="6.36" ry="2.08" transform="translate(-2.91 7.31) rotate(-47.58)"/>
  <ellipse class="cls-3" cx="7.05" cy="6.98" rx="6.36" ry="2.51" transform="translate(-.33 .35) rotate(-2.8)"/>
  <path class="cls-1" d="M6.82,11.03c-.76,0-1.43-.16-2-.49-.58-.33-1.02-.79-1.34-1.38-.32-.6-.48-1.31-.48-2.13,0-.86.17-1.59.51-2.19.34-.6.8-1.06,1.38-1.37s1.21-.47,1.92-.47c.46,0,.9.07,1.3.2s.76.32,1.07.56c.31.24.56.53.75.86.19.33.3.7.34,1.1h-2.15c-.03-.14-.08-.26-.15-.36-.07-.11-.16-.2-.26-.27-.11-.07-.23-.13-.37-.17-.14-.04-.3-.06-.47-.06-.35,0-.66.08-.91.25-.25.17-.44.41-.57.73-.13.32-.2.71-.2,1.16s.06.85.19,1.17.32.57.56.74c.25.17.55.26.92.26.32,0,.58-.05.8-.14.21-.09.37-.22.48-.4s.16-.37.16-.6l.39.04h-1.8v-1.52h3.48v1.09c0,.71-.15,1.31-.45,1.82-.3.5-.72.89-1.25,1.16-.53.27-1.14.4-1.83.4Z"/>
</svg>