<?xml version="1.0" encoding="UTF-8"?>
<svg id="Layer_1" data-name="Layer 1" xmlns="http://www.w3.org/2000/svg" viewBox="0 0 800 800">
  <defs>
    <style>
      .cls-1 {
        fill: #eee5ca;
      }
    </style>
  </defs>
  <path class="cls-1" d="M551.4,348.97l-101.65-101.65c-7.28-7.28-20.06-7.28-27.34,0l-175.11,175.1c-3.64,3.64-5.64,8.5-5.64,13.67s2,10.03,5.64,13.67l101.64,101.65c3.64,3.64,8.5,5.65,13.67,5.65s10.03-2.01,13.68-5.65l175.11-175.1c3.64-3.64,5.64-8.49,5.64-13.67s-2-10.03-5.64-13.67ZM542.49,367.39l-175.12,175.11c-2.51,2.53-7,2.53-9.52,0l-101.65-101.65c-1.27-1.25-1.96-2.95-1.96-4.76s.7-3.5,1.96-4.76l175.11-175.1c1.26-1.27,2.95-1.96,4.76-1.96s3.5.69,4.76,1.95l101.66,101.65c1.27,1.26,1.96,2.95,1.96,4.76,0,1.81-.7,3.5-1.96,4.76Z"/>
  <path class="cls-1" d="M653.15,210.52l-64.97-64.97c-7.29-7.28-20.06-7.28-27.34,0l-78.62,78.62c-3.64,3.64-5.64,8.5-5.64,13.67s2,10.03,5.64,13.67l64.97,64.97c3.65,3.64,8.5,5.64,13.68,5.64s10.03-2,13.67-5.64l78.62-78.62c7.52-7.53,7.52-19.8,0-27.34ZM644.25,228.95l-78.62,78.62c-2.53,2.52-7.01,2.52-9.53,0l-64.97-64.97c-1.27-1.26-1.96-2.95-1.96-4.76s.7-3.5,1.96-4.76l78.62-78.62c1.26-1.27,2.95-1.96,4.76-1.96s3.51.69,4.77,1.96l64.96,64.96c2.63,2.63,2.63,6.9,0,9.53Z"/>
  <path class="cls-1" d="M378.3,138.99L248.77,9.46C242.67,3.37,234.54.01,225.88.01s-16.8,3.36-22.89,9.45L9.45,203c-6.1,6.09-9.45,14.22-9.45,22.88s3.35,16.79,9.45,22.88l129.53,129.54c6.09,6.09,14.22,9.45,22.88,9.45s16.79-3.36,22.88-9.45l193.54-193.53c12.61-12.62,12.61-33.16,0-45.78ZM369.39,175.85l-193.54,193.54c-7.43,7.42-20.52,7.43-27.96,0L18.36,239.86c-3.72-3.71-5.76-8.67-5.76-13.98s2.04-10.26,5.76-13.98L211.89,18.37c3.72-3.72,8.68-5.76,13.98-5.76s10.27,2.05,13.98,5.76l129.53,129.53c7.7,7.7,7.7,20.25,0,27.96Z"/>
  <path class="cls-1" d="M343.75,334.86L115.13,106.23c-2.46-2.46-6.44-2.46-8.91,0-2.46,2.46-2.46,6.44,0,8.91l228.62,228.63c1.23,1.23,2.84,1.85,4.45,1.85s3.23-.61,4.45-1.85c2.46-2.46,2.46-6.44,0-8.91Z"/>
  <path class="cls-1" d="M790.54,551.23l-129.53-129.53c-6.09-6.09-14.22-9.45-22.89-9.45s-16.79,3.35-22.89,9.45l-193.53,193.53c-6.1,6.09-9.45,14.22-9.45,22.88s3.36,16.79,9.45,22.88l129.53,129.53c6.09,6.09,14.22,9.45,22.88,9.45s16.8-3.36,22.88-9.45l193.55-193.53c12.61-12.62,12.61-33.16,0-45.78ZM781.62,588.09l-193.54,193.54c-7.43,7.42-20.52,7.43-27.96,0l-129.53-129.53c-3.72-3.72-5.76-8.68-5.76-13.98s2.05-10.26,5.76-13.98l193.53-193.53c3.72-3.72,8.68-5.76,13.98-5.76s10.27,2.05,13.98,5.76l129.53,129.53c7.7,7.7,7.7,20.25,0,27.96Z"/>
  <path class="cls-1" d="M693.76,684.87l-229.92-229.92c-2.46-2.46-6.44-2.46-8.91,0s-2.46,6.44,0,8.91l229.92,229.92c1.23,1.23,2.84,1.85,4.45,1.85s3.22-.62,4.45-1.85c2.46-2.46,2.46-6.44,0-8.91Z"/>
  <path class="cls-1" d="M668.58,543.65c-2.46-2.46-6.44-2.46-8.91,0l-173.22,173.22c-2.46,2.46-2.46,6.44,0,8.91,1.23,1.23,2.84,1.85,4.45,1.85s3.22-.61,4.45-1.85l173.22-173.22c2.46-2.46,2.46-6.44,0-8.91Z"/>
  <path class="cls-1" d="M725.03,487.2c-2.46-2.46-6.44-2.46-8.91,0l-19.54,19.53c-2.46,2.46-2.46,6.44,0,8.91,1.23,1.23,2.84,1.85,4.45,1.85s3.23-.62,4.45-1.85l19.54-19.53c2.46-2.46,2.46-6.44,0-8.91Z"/>
  <path class="cls-1" d="M256.34,131.42c-2.46-2.46-6.44-2.46-8.91,0l-173.22,173.21c-2.46,2.46-2.46,6.44,0,8.91,1.23,1.23,2.84,1.85,4.45,1.85s3.23-.61,4.45-1.85l173.22-173.21c2.46-2.46,2.46-6.44,0-8.91Z"/>
  <path class="cls-1" d="M312.8,74.96c-2.46-2.46-6.44-2.46-8.91,0l-19.54,19.53c-2.46,2.46-2.46,6.44,0,8.91,1.23,1.23,2.84,1.85,4.45,1.85s3.22-.62,4.45-1.85l19.54-19.53c2.46-2.46,2.46-6.44,0-8.91Z"/>
  <path class="cls-1" d="M304.65,438.79c-2.46-2.46-6.44-2.46-8.91,0l-25.25,25.25c-2.46,2.46-2.46,6.44,0,8.91,1.23,1.23,2.84,1.85,4.45,1.85s3.23-.62,4.45-1.85l25.25-25.25c2.46-2.46,2.46-6.44,0-8.91Z"/>
  <path class="cls-1" d="M495.97,247.46c-2.46-2.46-6.44-2.46-8.91,0l-145.16,145.16c-2.46,2.46-2.46,6.44,0,8.91,1.23,1.23,2.84,1.85,4.45,1.85s3.23-.62,4.45-1.85l145.16-145.16c2.46-2.46,2.46-6.44,0-8.91Z"/>
  <path class="cls-1" d="M553.41,304.88c-2.46-2.46-6.44-2.46-8.91,0l-21.89,21.89c-2.46,2.46-2.46,6.45,0,8.91,1.23,1.23,2.84,1.85,4.45,1.85s3.23-.62,4.45-1.85l21.89-21.89c2.46-2.46,2.46-6.45,0-8.91Z"/>
  <path class="cls-1" d="M639.34,159.38c-13.71-13.71-34.6-17.19-52-8.66-3.12,1.53-4.41,5.3-2.88,8.43,1.54,3.12,5.3,4.42,8.43,2.88,12.55-6.15,27.65-3.64,37.54,6.25s12.41,24.98,6.25,37.54c-1.52,3.12-.23,6.9,2.88,8.43.89.43,1.84.64,2.77.64,2.33,0,4.57-1.3,5.67-3.53,8.52-17.39,5.04-38.29-8.66-51.99Z"/>
  <path class="cls-1" d="M288.32,509.82c-46.42-46.43-100.65-74.4-138.54-71.32-2.44.2-4.55,1.8-5.4,4.11-.85,2.31-.28,4.89,1.46,6.63l203.07,203.08c1.2,1.2,2.81,1.85,4.45,1.85.73,0,1.46-.13,2.17-.39,2.31-.84,3.91-2.95,4.11-5.4,3.09-37.76-24.91-92.14-71.32-138.55ZM166.06,451.65c33.06,4.65,76.21,29.95,113.36,67.08,37.13,37.14,62.43,80.51,67.08,113.36l-180.44-180.44Z"/>
</svg>