<?xml version="1.0" encoding="UTF-8"?>
<svg id="Camada_1" data-name="Camada 1" xmlns="http://www.w3.org/2000/svg" viewBox="0 0 800 800">
  <defs>
    <style>
      .cls-1 {
        fill: #eee5ca;
      }
    </style>
  </defs>
  <path class="cls-1" d="M448.75,536.61l-11.65-9.47c-20.22,18.13-40.13,36.19-60.29,53.98-9.9,8.73-19.94,17.37-30.49,25.28-13.7,10.26-22.33,9.18-34.48-3.32-4.32-4.44-8.24-9.28-13.61-15.38-1.82,16.29-2.76,30.83-5.18,45.11-4.72,28.54-17.26,55.21-36.24,77.04-19.69,22.86-34.48,24.31-56.8,4.85-14.31-12.46-28.17-25.44-42.29-38.13-1.37-.77-2.84-1.35-4.37-1.73-10.95,9.03-25.87,14.03-27.22,33.38-.82,11.71-11.61,17.89-23.51,19.3-6.33.77-12.75-.49-18.32-3.6-5.57-3.12-10-7.92-12.66-13.72-5.29-11.32-5.13-22.4,3.23-32.28,2.11-2.49,5.89-5.7,8.47-5.35,21.27,2.89,29.28-14.65,42.08-25.87-7.87-8.07-15.71-15.46-22.8-23.52-12.82-14.59-25.53-29.31-37.6-44.51-7.17-9.04-3.6-18.79,1.56-27.45,20.73-34.8,51.76-56.69,89.81-68.3,14.54-4.44,30.29-4.88,46.29-7.25-1.11-2.67-2.4-5.26-3.88-7.76-15.6-23.55-14.63-30.26,6.56-49.74,24.93-22.92,49.66-46.06,74.62-69.22-4.34-10.08-9.43-9.05-16.11-3.65-7.89,6.69-16.25,12.81-25.02,18.31-15.51,9.23-25.15,8.11-38.75-3.92-17.62-15.58-35.21-31.2-52.19-47.46-44.45-42.57-88.69-85.35-132.74-128.33-17.54-17.08-17.73-21.28-3.04-40.62,4.37-5.33,9.02-10.42,13.93-15.26C61.52,90.35,97.22,52.94,132.37,15.04c16.16-17.42,24.15-20.44,42.34-5.2,36.09,30.25,70.59,62.4,105.57,93.96,29.87,26.96,59.29,54.42,89.29,81.26,18.94,16.95,20.25,24.31,6.17,45.1-3.53,5.21-6.01,11.18-9.87,16.1-4.4,4.98-9.11,9.69-14.08,14.11l10.38,15.2c8.43-6.82,16.39-13.03,24.11-19.53,26.8-22.56,53.63-45.09,80.22-67.9,14.33-12.3,21.97-12.53,42.92,1.08,4.59-2.91,9.74-6.31,15.02-9.49,49.33-29.66,113.05-4.92,125.32,49.17,6.53,28.78-4.23,53.23-23.12,74.27-6.98,7.77-10.76,14.33-8.47,25.68,3.21,15.89-8.21,26.36-18.49,36.79-23.41,23.74-46.44,47.84-70.87,73.1l10.53,13.05c6.48-7.81,13.38-15.26,20.67-22.33,17.29-15.03,32.56-14.56,48.55,1.38,54.99,54.84,110.62,109.06,164.35,165.12,35.83,37.37,32.94,45.67-1.25,82.56-41.13,43.63-89.09,80.26-142.02,108.44-30.22,16.39-43.49,13.38-66.1-11.96-47.47-53.19-95.37-106.05-143.06-159.05-3.13-3.38-6.05-6.96-8.73-10.71-10.78-15.57-10.38-20.33,3.06-34.26,10.74-11.13,21.72-22.03,33.94-34.39ZM337.89,573.67c87.08-76.14,161.89-160.9,241.65-240.99l-97.03-110.58c-89.35,71.3-174.97,146.28-256.28,230.06l111.65,121.5ZM229.17,692.06c21.98-29.46,41.12-79.11,33.57-111.32-8.15-34.74-31.31-54.58-59.54-55.4-32.43-.94-74.78,12.41-96.72,34.48,38.3,43.05,84.54,89.34,122.69,132.24ZM507.25,526.25c-22.7,19.61-44.67,38.58-67.88,58.63l54.4,48.36,61.05-52.11-47.57-54.88ZM635.46,509.92l-47.33-55.58-58.43,51.51,53.22,51.64,52.53-47.57ZM87.84,107.34l-57.04,51.27,56.48,48.65,49.61-53.24-49.05-46.68ZM160.84,39.93l-54.36,50.92,50.9,42.45,45.82-47.28-42.36-46.08ZM756.93,639.51l-38.69-36.34-64.27,46.87,39.94,47.88,63.02-58.42ZM655.47,532.76l-56.46,47.43,39.77,48.52c20.04-16.86,39.13-32.93,59.42-50.01l-42.73-45.94ZM219.89,237.61l-44.51,47.18,51.47,47.53,37.93-43.89-44.89-50.83ZM609.73,652.18l-37.78-49.83c-20.87,17.27-39.77,32.88-58.79,48.63l43.38,42.68,53.19-41.48ZM612.04,761.11l52.6-38.32-40.95-49.21c-18.94,13.28-36.41,25.52-53.89,37.78l42.24,49.75ZM288.89,174.82l-43.82,42.45,49.7,45.28,39.16-45.6-45.04-42.13ZM111.79,228.37l34.23,30.47,49.51-42.81c-12.28-12.91-24-25.24-35.85-37.71l-47.89,50.05ZM230.72,112.66l-48.34,44.99,37.77,35.12,45.5-42.56-34.93-37.55ZM589.15,278.76c21.42-27.74,22.73-48.48,5.44-64.39-17.28-15.91-45.12-15.35-64.39,2.62l58.95,61.77ZM507.03,463.26l-42.17,38.25,9.79,13.36,42.72-44.95-10.34-6.67ZM326.34,286.85q-29.59,26.63-19.72,37.45l32.41-28.88-12.68-8.57Z"/>
</svg>